<?xml version="1.0" encoding="utf-8" ?>
<svg xmlns="http://www.w3.org/2000/svg" xmlns:xlink="http://www.w3.org/1999/xlink" width="512" height="512">
	<path fill="#FFFC00" d="M176.875 479.937L101.915 480.134C100.9 472.949 99.0443 465.744 97.5786 458.63L88.0016 413.66L55.338 256.1C54.232 250.362 55.1498 248.737 50.847 244.481C12.6336 206.684 16.0633 143.603 59.5744 111.081C71.5614 102.121 85.8095 96.2007 100.531 93.6338L107.13 92.7053C111.992 92.1858 110.09 92.1016 112.319 87.2528C136.592 34.4487 199.261 12.2758 248.75 43.5137C252.437 45.8407 256.011 48.0081 258.787 51.4432L259.995 49.9706C270.848 37.7118 298.192 29.5829 313.653 28.6077C315.757 28.3369 318.195 28.5538 320.32 28.6181C361.807 29.8736 392.307 55.54 406.278 93.0739L413.154 94.1957C458.301 102.801 492.168 143.755 487.325 190.273C485.491 207.886 477.362 225.046 466.135 238.517L461.824 243.294C457.123 248.283 458.106 250.83 456.834 257.402L409.419 480.073L176.875 479.937ZM314.377 64.352C288.96 66.499 270.051 83.6739 267.807 109.121C271.077 105.797 273.923 102.047 277.306 98.8494C312.379 65.7005 363.08 91.1737 364.397 137.841C377.881 136.109 390.44 138.438 401.4 146.878C414.193 156.729 423.645 173.811 420.06 190.306C419.411 191.002 418.682 190.934 417.75 190.959L102.331 190.958C99.1144 190.957 95.5355 191.27 92.3779 190.753C87.8871 164.784 107.96 141.544 133.035 137.546C139.678 136.487 150.661 136.748 156.694 139.341C157.273 135.676 156.826 131.822 157.381 128.111C161.856 98.2242 183.956 77.9282 214.336 78.1811C216.767 78.2013 219.27 78.1539 221.673 78.5347L234.863 81.0423C228.344 72.1528 217.877 67.1907 207.17 65.5347C168.734 59.5894 140.278 93.6879 141.033 130.741C118.952 125.495 94.4176 127.549 76.9269 143.315C52.9984 166.444 56.6023 204.313 81.587 224.942L85.9227 228.213C87.9946 229.738 88.2556 230.46 88.7013 233.004L106.14 321.905L129.969 435.367C130.384 437.342 130.873 439.343 131.165 441.34C131.804 445.704 131.695 444.411 136.239 444.463L379.893 444.42C380.63 441.675 381.054 438.775 381.602 435.981L421.655 247.724C422.867 241.829 423.681 235.635 425.301 229.852C426.172 226.744 429.232 225.29 431.573 223.327C465.055 195.235 452.975 141.815 410.398 130.419C400.432 127.751 388.535 127.3 378.254 128.738C377.283 128.874 375.889 129.32 374.951 129.16C375.971 94.9519 353.593 64.8925 318 64.2831C316.853 64.2635 315.494 64.1549 314.377 64.352Z"/>
	<path fill="#FFFC00" d="M359.698 385.7L354.374 412.925C353.389 413.253 351.952 413.079 350.904 413.082L157.884 413.02L122.528 234.713L127.575 234.807L391.964 234.777C391.475 236.039 391.392 237.479 391.113 238.804L359.698 385.7Z"/>
</svg>
